Patient4_TMGait_0pt8_01_right_31_EMG.mot
version=1
nRows=30
nColumns=33
inDegrees=no
endheader
time	1LAddLong	2LGlutMax	3LGlutMed	4LIliopsoas	5LSemiMemb	6LBicFemLong	7LRecFem	8LVastMed	9LVastLat	10LGasMed	11LTibAnt	12lTibPost	13LPeroneusLong	14LSol	15LExtDigLong	16LFlexDigLong	17RAddLong	18RGlutMax	19RGlutMed	20RIliopsoas	21RSemiMemb	22RBicFemLong	23RRecFem	24RVastMed	25RVastLat	26RGasMed	27RTibAnt	28RTibPost	29RPeroneusLong	30RSol	31RExtDigLong	32RFlexDigLong
35.455	-0.052948	0.13641	0.068665	0.010376	-0.078125	-0.074921	0.10223	-0.002441	0.18097	0.010376	0.090485	-0.002441	0.037689	0.1001	0.10056	0.022278	0.039978	-0.14175	-0.26962	0.03891	0.18204	0.12756	-0.15106	-0.088348	0.021515	0.053864	-0.24231	0.020447	-0.91843	-0.075684	-0.003204	0.001068
35.456	-0.048218	0.22858	0.094604	0.007629	-0.067291	-0.22415	0.054932	0.000763	0.070343	0.011902	0.10376	0.010834	0.080719	0.036011	0.34363	-0.006256	0.041809	-0.12497	-0.23758	0.063324	0.44296	0.12909	-0.14786	-0.093689	0.024567	0.070343	-0.15533	0.013733	-0.58945	-0.16266	-0.003052	-0.005951
35.457	-0.018768	0.2533	0.13931	0.010681	0.01358	-0.079498	-0.033875	-0.011444	0.035095	-0.009766	0.021973	0.003204	0.066681	0.055084	0.12482	0.003204	0.035706	-0.11124	-0.3952	0.064697	0.59189	0.046844	-0.14801	-0.015411	0.023651	0.097809	0.017242	-0.088348	-0.005035	-0.29678	-0.002899	-0.00351
35.458	0.000458	0.16876	0.16663	0.005035	0.017548	0.040588	0.006256	-0.011444	-0.076904	-0.006714	-0.019684	0.005646	0.070496	0.058441	-0.062256	-0.006256	0.009918	-0.082245	-0.38223	-0.003662	0.26428	0.048981	-0.14435	-0.016327	0.029144	0.11566	0.14358	-0.068054	-0.02533	-0.66605	-0.002899	-0.007629
35.459	0.001984	0.2211	0.17441	0.024414	0.09964	0.23987	0.063934	-0.011597	-0.1268	-0.017853	0.05722	0.008545	0.045319	-0.000458	-0.014038	-0.007477	-0.011902	0.059204	-0.3273	-0.054932	0.47974	-0.057373	-0.17075	-0.023651	0.031433	0.084534	0.10239	0.077515	-0.16815	-1.2161	-0.002441	-0.006866
35.46	0.010986	0.24094	0.18509	0.006561	0.13397	0.56107	0.014954	-0.028687	-0.026855	0.003662	0.049286	0.005035	0.057373	-0.094604	0.16663	0.000916	-0.006561	0.035706	-0.32989	-0.022278	0.2919	-0.072174	-0.16983	0.030823	0.030823	0.001373	0.018616	-0.014191	-0.11063	-1.4435	-0.004272	-0.009766
35.461	0.006866	0.12451	0.1297	-0.014496	0.06134	0.54611	0.014801	-0.023499	-0.032349	-0.003662	-0.015259	0.00946	0.056458	0.020752	-0.10834	-0.00351	-0.026093	0.046082	-0.35034	-0.028076	0.2655	0.042725	-0.20615	0.026855	0.040588	-0.090179	-0.026855	-1.3478	-0.24078	-1.0611	0.000153	-0.011444
35.462	-0.001373	0.020447	0.048828	-0.003967	-0.0177	0.31265	0.005798	-0.027466	-0.071411	-0.005798	-0.00946	0.006104	0.03952	0.02655	0.20935	0.001678	-0.029297	0.04425	-0.35141	-0.018616	0.29282	0.13947	-0.18662	0.061798	0.036774	-0.11475	-0.074158	-0.32623	0.3714	-0.50293	-0.001068	-0.010376
35.463	0.000916	-0.074463	0.022888	-0.000458	-0.011444	0.16327	0.054321	-0.019989	-0.054321	0.01709	-0.15289	0.006409	0.056763	0.016022	0.29297	0.008698	0.005188	0.024719	-0.42801	0.016327	0.29007	0.17578	-0.16693	0.016937	0.061798	-0.095825	-0.05188	0.28122	0.79666	0.0354	0.000458	-0.031281
35.464	-0.015717	-0.1384	-0.020294	0.030823	-0.016174	0.26581	0.088043	-0.010681	0.066376	-0.003815	-0.077057	0.009003	0.07019	0.078888	-0.061493	0.007629	0.014954	-0.027771	-0.40298	0.036926	0.27924	0.23331	-0.16815	0.039825	0.027924	-0.064545	-0.053864	0.93658	0.59876	0.61371	-0.003815	-0.034485
35.465	-0.018158	-0.12665	-0.01236	0.034637	-0.065613	0.41626	0.053711	-0.006866	0.26489	-0.00946	-0.18616	0.018921	0.04715	0.082703	-0.25772	0.022736	0.006866	0.068054	-0.439	0.093994	0.26886	0.22232	-0.16769	-0.066528	0.032196	-0.028687	-0.030212	0.59036	0.15778	0.70938	-0.002289	-0.022888
35.466	-0.015564	-0.12161	0.070953	0.006104	-0.073242	0.22995	0.046997	0.004272	0.48859	0.018005	-0.18448	0.012512	-0.020447	0.082397	-0.22964	0.000763	0.00473	0.032501	-0.45181	0.049744	0.23468	0.19134	-0.19104	-0.044403	0.036774	-0.000458	-0.025787	0.18082	-0.050507	1.2054	-0.00351	-0.011292
35.467	-0.020294	-0.15121	0.17517	0.010834	-0.13428	-0.24689	0.043793	0.007935	0.58212	0.00061	-0.22278	0.012817	-0.026398	0.078888	-0.2858	-0.011902	0.029755	0.016785	-0.32989	0.007019	0.33493	0.22125	-0.18814	-0.077362	0.030212	-0.013885	-0.02182	0.08255	-0.095673	1.1493	-0.002747	-0.004272
35.468	0.005798	-0.16724	0.1004	-0.003052	-0.10773	-0.42786	-0.021515	-0.004272	0.63019	-0.036926	-0.23377	0.006409	0.10407	0.041656	-0.28549	-0.005798	0.032043	0.020599	-0.24048	0.001221	0.32684	0.060272	-0.19516	-0.10193	0.041962	-0.027466	-0.026703	0.014801	-0.053864	0.82214	-0.005493	-0.005493
35.469	0.034027	-0.098572	0.01358	-0.002747	-0.034027	-0.42954	-0.10208	-0.000458	0.75272	-0.030823	0.021667	0.013885	0.21179	0.037537	-0.20035	0.002289	0.052795	0.031433	-0.23941	-0.03479	0.27664	0.016785	-0.18097	0.000305	0.033112	-0.02121	-0.06012	-0.016022	0.055695	0.46799	-0.00473	-0.004425
35.47	0.038147	-0.1326	-0.057068	-0.00473	0.054321	-0.18997	-0.090179	0.022278	0.74738	-0.043945	0.15076	0.009918	0.20233	0.057526	-0.12817	-0.003357	0.066071	0.074768	-0.25146	-0.002899	0.29541	0.042877	-0.1918	-0.061798	0.018158	-0.022278	-0.074005	-0.030975	0.12283	0.09552	-0.003052	-0.008545
35.471	0.034332	-0.19928	-0.12894	-0.014343	0.08194	-0.28336	-0.13321	0.023956	0.47409	-0.060425	0.15335	0.01709	0.16083	0.035553	-0.062103	0.011597	0.046539	0.12543	-0.10651	-0.045166	0.22079	0.00473	-0.22339	-0.048981	0.02182	-0.035858	-0.039825	-0.024567	0.08255	-0.014343	-0.002899	-0.00885
35.472	0.028687	-0.25116	-0.18829	-0.014648	0.072174	-0.30991	-0.11917	0.014191	0.047302	-0.036011	0.23666	0.016327	0.049286	0.006256	-0.16647	0.001068	0.013275	0.12131	-0.095978	-0.029144	0.14023	-0.077972	-0.24399	-0.050964	0.023651	-0.027313	0.005493	-0.017242	0.047913	0.17593	-0.002441	-0.007629
35.473	0.022278	-0.2449	-0.14694	-0.003357	0.077667	-0.2034	-0.029755	-0.007782	-0.44098	-0.010834	0.29831	0.012817	-0.050049	-0.002441	0.015411	-0.007629	-0.00885	0.11795	-0.096893	-0.013123	0.04715	-0.1207	-0.23346	-0.047913	0.011749	-0.019531	0.023041	-0.036011	-0.03067	0.11383	-0.000763	-0.007935
35.474	0.014496	-0.31815	-0.034943	0.000458	0.1149	-0.18234	0.084381	-0.010071	-0.52719	-0.013123	0.18112	0.010071	-0.089569	-0.016479	0.1796	-0.004883	-0.037231	0.1329	-0.092316	-0.059052	-0.013733	-0.02182	-0.27695	0.000763	0.018005	-0.009766	0.045471	-0.044098	-0.060883	0.12375	-0.002441	-0.01297
35.475	-0.009308	-0.35934	-0.078735	-0.012207	0.06958	-0.11261	0.14862	0.013885	-0.23331	-0.01709	-0.12878	0.00885	-0.11871	-0.043945	0.1355	0.009918	-0.045776	0.08728	-0.11368	-0.007172	-0.006256	0.072937	-0.26947	-0.045166	0.046844	-0.00351	-0.008698	-0.049286	-0.095367	0.037537	-0.002289	-0.021362
35.476	-0.023651	-0.35217	0.00885	0.006714	0.033417	-0.12344	0.19287	0.032654	-0.20416	-0.030823	-0.24246	0.016327	0.040283	-0.024414	-0.00824	0.018158	-0.019531	0.11841	-0.12436	0.034943	0.002899	0.006104	-0.29205	-0.00473	0.029144	-0.00946	-0.13443	-0.041199	-0.009918	-0.025177	-0.004578	-0.016632
35.477	-0.037537	-0.34149	-0.026398	-0.004883	-0.00473	-0.16357	0.19531	0.067902	-0.34347	-0.016632	-0.13016	0.023193	0.14374	-0.082703	0.029449	0.012817	-0.039673	0.097504	-0.092468	0.087128	-0.014801	-0.11139	-0.27496	-0.013428	0.044708	-0.00061	-0.035706	-0.041656	0.068512	-0.051422	-0.000458	-0.010376
35.478	-0.045471	-0.31601	-0.076752	0.028534	-0.06134	-0.081635	0.17639	0.070496	-0.36514	-0.007782	-0.045319	0.023346	0.043335	-0.11871	0.35065	0.014191	-0.024872	0.098724	-0.077972	0.10971	-0.036926	-0.2179	-0.24231	-0.058289	0.038452	0.001526	0.015564	-0.036316	0.12543	-0.012512	-0.001831	-0.015259
35.479	-0.06424	-0.34744	-0.08728	0.009003	-0.11002	-0.006866	0.11383	0.06424	-0.28595	0.022888	-0.039978	0.021362	0.00351	-0.12085	0.048981	0.013733	-0.016479	0.11093	-0.025787	0.0914	0.054626	-0.20325	-0.29419	-0.008087	0.04425	-0.001373	-0.13275	-0.044708	0.1384	-0.031128	-0.003052	-0.014801
35.48	-0.067291	-0.383	-0.018311	0.003204	-0.073547	0.20233	0.025635	0.046692	-0.17334	0.006866	-0.071716	0.021973	-0.16586	-0.061798	0.070801	0.013733	0.03952	0.1767	0.016327	0.080261	0.20325	-0.27191	-0.32516	0.006561	0.034943	-0.001221	-0.009918	-0.028839	-0.026703	-0.018463	-0.002747	-0.016632
35.481	-0.06424	-0.39566	0.10635	0.017242	-0.037079	0.43152	-0.037689	0.011749	-0.055389	0.03952	-0.029907	0.028839	-0.3122	-0.027008	0.098877	0.020142	0.076904	0.16998	0.09491	0.036926	0.29236	-0.23911	-0.32471	0.024109	0.045319	-0.005951	0.1001	-0.031891	-0.19836	-0.050507	0.001221	-0.017853
35.482	-0.07431	-0.47073	0.10437	0.016479	-0.083923	0.33066	-0.019226	-0.016327	-0.05127	0.038147	-0.045776	0.020294	0.20538	-0.040741	0.006409	0.017242	0.070343	0.10483	0.097656	0.051727	0.2005	-0.2565	-0.29495	0.019073	0.033722	0.001373	0.13748	-0.023956	-0.23972	-0.029297	-0.00412	-0.016937
35.483	-0.059052	-0.5011	-0.055695	-0.005341	-0.022736	0.27512	0.036316	-0.032806	-0.060272	0.045319	-0.052643	0.019836	0.40314	-0.015564	-0.07019	0.013885	0.093842	0.087738	0.08728	0.059662	0.096741	-0.24155	-0.35278	0.012512	0.054016	0.005646	0.15228	-0.021667	-0.21057	0.018768	-0.003815	-0.016937
35.484	-0.034332	-0.44571	-0.045776	0.003815	0.070953	0.30395	0.079498	-0.031281	-0.003357	0.031586	-0.077667	0.030212	0.17929	0.013885	-0.11704	0.004272	0.11276	0.057831	0.085449	0.016632	0.050659	-0.13763	-0.36987	0.027466	0.032501	0.014954	0.20508	-0.015106	-0.12878	-0.032196	-0.000458	-0.012054
